<svg width="53" height="42" viewBox="0 0 53 42" fill="none" xmlns="http://www.w3.org/2000/svg">
<path fill-rule="evenodd" clip-rule="evenodd" d="M47.4211 0H5.57895C2.22455 0 0 2.35047 0 5.7931V36.2069C0 39.6495 2.22455 42 5.57895 42H47.4211C50.7755 42 53 39.6495 53 36.2069V5.7931C53 2.35047 50.7755 0 47.4211 0ZM48.8158 5.79325V10.1381L48.3991 10.4763C46.0439 12.388 42.3154 15.4143 34.8684 21.7243C34.2625 22.0703 33.4648 22.6838 32.6081 23.3427L32.608 23.3427C30.932 24.6318 29.0297 26.0948 27.8948 26.0691C25.5977 26.0981 23.1047 24.2711 21.237 22.9023C20.5765 22.4182 19.9941 21.9914 19.5263 21.7243C12.0853 15.4192 8.35605 12.3922 6.00017 10.48L6.00017 10.48L5.57897 10.1381V5.79325H48.8158ZM5.57897 15.9311V36.2069H48.8158V15.9311C46.4341 17.9251 43.0559 20.7237 37.6579 24.6207C35.5651 26.8994 31.6372 30.9884 27.8948 30.4138C22.7357 30.9884 18.7574 26.8392 16.7369 24.6207C11.3379 20.7227 7.96053 17.9249 5.57897 15.9311Z" fill="#F58531"/>
<path fill-rule="evenodd" clip-rule="evenodd" d="M47.4211 0H5.57895C2.22455 0 0 2.35047 0 5.7931V36.2069C0 39.6495 2.22455 42 5.57895 42H47.4211C50.7755 42 53 39.6495 53 36.2069V5.7931C53 2.35047 50.7755 0 47.4211 0ZM48.8158 5.79325V10.1381L48.3991 10.4763C46.0439 12.388 42.3154 15.4143 34.8684 21.7243C34.2625 22.0703 33.4648 22.6838 32.6081 23.3427L32.608 23.3427C30.932 24.6318 29.0297 26.0948 27.8948 26.0691C25.5977 26.0981 23.1047 24.2711 21.237 22.9023C20.5765 22.4182 19.9941 21.9914 19.5263 21.7243C12.0853 15.4192 8.35605 12.3922 6.00017 10.48L6.00017 10.48L5.57897 10.1381V5.79325H48.8158ZM5.57897 15.9311V36.2069H48.8158V15.9311C46.4341 17.9251 43.0559 20.7237 37.6579 24.6207C35.5651 26.8994 31.6372 30.9884 27.8948 30.4138C22.7357 30.9884 18.7574 26.8392 16.7369 24.6207C11.3379 20.7227 7.96053 17.9249 5.57897 15.9311Z" fill="url(#paint0_linear_1_4229)" fill-opacity="0.9"/>
<defs>
<linearGradient id="paint0_linear_1_4229" x1="52.0225" y1="-0.000143208" x2="-14.6587" y2="-10.5522" gradientUnits="userSpaceOnUse">
<stop offset="0.00393049" stop-color="#2555FF"/>
<stop offset="0.467083" stop-color="#8148FB"/>
<stop offset="1" stop-color="#F247FF"/>
</linearGradient>
</defs>
</svg>
